<svg width="302" height="302" viewBox="0 0 302 302" fill="none" xmlns="http://www.w3.org/2000/svg">
<path d="M33.4456 113.068C39.2001 95.427 48.8937 79.3156 61.7976 65.9452C74.7015 52.5748 90.4799 42.2933 107.946 35.8742C125.413 29.4552 144.113 27.0656 162.64 28.8853C181.167 30.705 199.039 36.6866 214.911 46.3801C230.784 56.0735 244.244 69.2265 254.279 84.8498C264.315 100.473 270.665 118.16 272.853 136.581C275.04 155.001 273.008 173.676 266.908 191.202C260.809 208.727 250.802 224.647 237.638 237.764" stroke="#102067" stroke-opacity="0.5" stroke-width="2"/>
<path d="M223.384 249.95C203.743 264.302 180.272 272.528 155.938 273.588C131.605 274.648 107.503 268.494 86.6795 255.905C65.8565 243.315 49.2481 224.856 38.9541 202.862C28.6601 180.868 25.1426 156.326 28.8461 132.34" stroke="#295592" stroke-opacity="0.5" stroke-width="2"/>
<path d="M94.575 243.466C76.374 232.219 61.9168 215.827 53.0316 196.364C44.1465 176.901 41.2324 155.239 44.658 134.12C48.0836 113 57.6949 93.3709 72.2765 77.7138C86.8581 62.0566 105.755 51.0751 126.578 46.1578" stroke="#102067" stroke-width="2"/>
<path d="M151.658 43.1542C170.998 43.2722 189.95 48.5887 206.53 58.5468C223.109 68.5048 236.706 82.7379 245.895 99.7554" stroke="#102067" stroke-opacity="0.8" stroke-width="2"/>
<path d="M256.629 126.187C261.122 144.9 260.541 164.474 254.946 182.888C249.351 201.302 238.946 217.89 224.802 230.942C210.658 243.993 193.289 253.035 174.485 257.135C155.681 261.234 136.124 260.244 117.831 254.264" stroke="#102067" stroke-opacity="0.8" stroke-width="2"/>
</svg>
